# xmcd
#
# Track frame offsets: 
#        150
#        15877
#        29885
#        39435
#        64302
#        91200
#        111157
#        138787
#        155332
#        172117
#        193397
#        210720
#        239170
#        264570
#        281867
#        299202
#        314110
#        330765
#
# Disc length: 4625 seconds
#
# Revision: 5
# Processed by: cddbd v1.5.2PL0 Copyright (c) Steve Scherf et al.
# Submitted via: ExactAudioCopy v0.99pb5
#
DISCID=1d120f12
DTITLE=Various Artist - Jazz Cafe, The Smoothest Sounds From The Coolest Arti
DTITLE=sts [CD2)
DYEAR=2003
DGENRE=Jazz
TTITLE0=Sergio Mendez and Brasil '66 - For What It's Worth
TTITLE1=Bobby Womack - California Dreamin'
TTITLE2=Serge Gainsbourg - Couleur Café
TTITLE3=Rockers Hi-Fi Meet Ella Fitzgerald - Sunshine Of Your Love (G-
TTITLE3=Corp Mix)
TTITLE4=Cinematic Orchestra Featuring Fontella Bass - Evolution
TTITLE5=Aim featuring Kate Rogers - The Girl Who Fell Through The Ice
TTITLE6=Nightmares On Wax - Les Nuits
TTITLE7=Nathan Haines - Illest Hobo
TTITLE8=Omar Featuring Angie Stone - Be Thankful (Dodge Soul Inside Mi
TTITLE8=x)
TTITLE9=Herbie Hancock Featuring Chaka Khan - The Essense
TTITLE10=Ashley Slater - Private Sunshine
TTITLE11=Two Banks Of Four - One Day
TTITLE12=Da Lata - Ponteio
TTITLE13=Karen Lane - Lullaby Of Birdland
TTITLE14=Sarah Vaughan - When Sunny Gets Blue
TTITLE15=Stan Getz - How Insensitive
TTITLE16=Miles Davis - So What
TTITLE17=Nina Simone - My Baby Just Cares For Me
EXTD=YEAR: 2003
EXTT0=
EXTT1=
EXTT2=
EXTT3=
EXTT4=
EXTT5=
EXTT6=
EXTT7=
EXTT8=
EXTT9=
EXTT10=
EXTT11=
EXTT12=
EXTT13=
EXTT14=
EXTT15=
EXTT16=
EXTT17=
PLAYORDER=
